<svg xmlns="http://www.w3.org/2000/svg" xmlns:xlink="http://www.w3.org/1999/xlink" width="1850" height="760" version="1.1">
<style type="text/css">
.l0{
  fill: #000000;
  stroke: #000000;
  stroke-linecap:round;
  stroke-linejoin:round;
  stroke-width: 1.29291;
}
.l1{
  fill: #00ccee;
  stroke: #00ccee;
  stroke-linecap:round;
  stroke-linejoin:round;
  stroke-width: 1.29291;
}
.l2{
  fill: #4f4f4f; fill-opacity: 0.2;
  stroke: #4f4f4f;
  stroke-linecap:round;
  stroke-linejoin:round;
  stroke-width: 1.29291;
}
.l3{
  fill: #cccccc; fill-opacity: 0.5;
  stroke: #cccccc;
  stroke-linecap:round;
  stroke-linejoin:round;
  stroke-width: 1.29291;
}
.l4{
  fill: #88dd00;
  stroke: #88dd00;
  stroke-linecap:round;
  stroke-linejoin:round;
  stroke-width: 1.29291;
}
.l5{
  fill: #bb2200;
  stroke: #bb2200;
  stroke-linecap:round;
  stroke-linejoin:round;
  stroke-width: 1.29291;
}
.l6{
  fill: #00ccee; fill-opacity: 0.5;
  stroke: #00ccee;
  stroke-linecap:round;
  stroke-linejoin:round;
  stroke-width: 1.29291;
}
.l7{
  fill: #ff0000; fill-opacity: 0.5;
  stroke: #ff0000;
  stroke-linecap:round;
  stroke-linejoin:round;
  stroke-width: 1.29291;
}
.l8{
  fill: #ffff00; fill-opacity: 0.5;
  stroke: #ffff00;
  stroke-linecap:round;
  stroke-linejoin:round;
  stroke-width: 1.29291;
}
.l9{
  fill: #ffffff; fill-opacity: 0.5;
  stroke: #ffffff;
  stroke-linecap:round;
  stroke-linejoin:round;
  stroke-width: 1.29291;
}
.l10{
  fill: #ff00ff;
  stroke: #ff00ff;
  stroke-linecap:round;
  stroke-linejoin:round;
  stroke-width: 1.29291;
}
.l11{
  fill: #00ff00; fill-opacity: 0.5;
  stroke: #00ff00;
  stroke-linecap:round;
  stroke-linejoin:round;
  stroke-width: 1.29291;
}
.l12{
  fill: #0044dd; fill-opacity: 0.5;
  stroke: #0044dd;
  stroke-linecap:round;
  stroke-linejoin:round;
  stroke-width: 1.29291;
}
.l13{
  fill: #aaaa00; fill-opacity: 0.5;
  stroke: #aaaa00;
  stroke-linecap:round;
  stroke-linejoin:round;
  stroke-width: 1.29291;
}
.l14{
  fill: #aaccaa; fill-opacity: 0.2;
  stroke: #aaccaa;
  stroke-linecap:round;
  stroke-linejoin:round;
  stroke-width: 1.29291;
}
.l15{
  fill: #ff7777; fill-opacity: 0.5;
  stroke: #ff7777;
  stroke-linecap:round;
  stroke-linejoin:round;
  stroke-width: 1.29291;
}
.l16{
  fill: #bfff81; fill-opacity: 0.5;
  stroke: #bfff81;
  stroke-linecap:round;
  stroke-linejoin:round;
  stroke-width: 1.29291;
}
.l17{
  fill: #00ffcc; fill-opacity: 0.2;
  stroke: #00ffcc;
  stroke-linecap:round;
  stroke-linejoin:round;
  stroke-width: 1.29291;
}
.l18{
  fill: #ce0097; fill-opacity: 0.5;
  stroke: #ce0097;
  stroke-linecap:round;
  stroke-linejoin:round;
  stroke-width: 1.29291;
}
.l19{
  fill: #d2d46b; fill-opacity: 0.2;
  stroke: #d2d46b;
  stroke-linecap:round;
  stroke-linejoin:round;
  stroke-width: 1.29291;
}
.l20{
  fill: #ef6158; fill-opacity: 0.2;
  stroke: #ef6158;
  stroke-linecap:round;
  stroke-linejoin:round;
  stroke-width: 1.29291;
}
.l21{
  fill: #fdb200; fill-opacity: 0.2;
  stroke: #fdb200;
  stroke-linecap:round;
  stroke-linejoin:round;
  stroke-width: 1.29291;
}
text {font-family: Sans-Serif;}
</style>
<rect class="l0" x="0" y="0" width="1850" height="760"/>
<text fill="#00ccee"  xml:space="preserve" font-size="20.5429" transform="translate(954.251, 30.053)" >vdd</text>
<text fill="#00ccee"  xml:space="preserve" font-size="20.5429" transform="translate(942.28, 736.366)" >vss</text>
<text fill="#00ccee"  xml:space="preserve" font-size="20.5429" transform="translate(1457.05, 389.195)" >out</text>
<text fill="#00ccee"  xml:space="preserve" font-size="20.5429" transform="translate(358.94, 603.564)" >vctrl</text>
<text fill="#cccccc"  xml:space="preserve" font-size="12.4503" transform="translate(498.482, 572.641)" >M1</text>
<text fill="#ff0000"  xml:space="preserve" font-size="9.3377" transform="translate(538.432, 626.679)" >S</text>
<text fill="#ff0000"  xml:space="preserve" font-size="9.3377" transform="translate(538.432, 574.069)" >D</text>
<text fill="#ff0000"  xml:space="preserve" font-size="9.3377" transform="translate(535.439, 593.758)" >B</text>
<text fill="#ff0000"  xml:space="preserve" font-size="9.3377" transform="translate(492.525, 593.758)" >G</text>
<text fill="#cccccc"  xml:space="preserve" font-size="12.4503" transform="translate(547.41, 583.8)" >nfet_01v8</text>
<text fill="#aaaa00"  xml:space="preserve" font-size="12.4503" transform="translate(548.907, 625.016)" >1 x 30 / 0.15</text>
<text fill="#aaaa00"  xml:space="preserve" font-size="12.4503" transform="translate(548.907, 610.052)" >nf=1</text>
<text fill="#cccccc"  xml:space="preserve" font-size="12.4503" transform="translate(553.396, 141.671)" >M2</text>
<text fill="#ff0000"  xml:space="preserve" font-size="9.3377" transform="translate(525.446, 195.709)" >D</text>
<text fill="#ff0000"  xml:space="preserve" font-size="9.3377" transform="translate(526.446, 143.098)" >S</text>
<text fill="#ff0000"  xml:space="preserve" font-size="9.3377" transform="translate(529.439, 162.787)" >B</text>
<text fill="#ff0000"  xml:space="preserve" font-size="9.3377" transform="translate(571.353, 162.787)" >G</text>
<text fill="#cccccc"  xml:space="preserve" font-size="12.4503" transform="translate(461.467, 152.83)" >pfet_01v8</text>
<text fill="#aaaa00"  xml:space="preserve" font-size="12.4503" transform="translate(442.971, 194.046)" >1 x 90 / 0.15</text>
<text fill="#aaaa00"  xml:space="preserve" font-size="12.4503" transform="translate(491.971, 179.081)" >nf=1</text>
<text fill="#cccccc"  xml:space="preserve" font-size="12.4503" transform="translate(761.853, 141.671)" >M3</text>
<text fill="#ff0000"  xml:space="preserve" font-size="9.3377" transform="translate(801.803, 195.709)" >D</text>
<text fill="#ff0000"  xml:space="preserve" font-size="9.3377" transform="translate(801.803, 143.098)" >S</text>
<text fill="#ff0000"  xml:space="preserve" font-size="9.3377" transform="translate(798.81, 162.787)" >B</text>
<text fill="#ff0000"  xml:space="preserve" font-size="9.3377" transform="translate(755.896, 162.787)" >G</text>
<text fill="#cccccc"  xml:space="preserve" font-size="12.4503" transform="translate(810.781, 152.83)" >pfet_01v8</text>
<text fill="#aaaa00"  xml:space="preserve" font-size="12.4503" transform="translate(812.278, 194.046)" >1 x 80 / 0.15</text>
<text fill="#aaaa00"  xml:space="preserve" font-size="12.4503" transform="translate(812.278, 179.081)" >nf=1</text>
<text fill="#cccccc"  xml:space="preserve" font-size="12.4503" transform="translate(761.853, 285.328)" >M4</text>
<text fill="#ff0000"  xml:space="preserve" font-size="9.3377" transform="translate(801.803, 339.366)" >D</text>
<text fill="#ff0000"  xml:space="preserve" font-size="9.3377" transform="translate(801.803, 286.755)" >S</text>
<text fill="#ff0000"  xml:space="preserve" font-size="9.3377" transform="translate(798.81, 306.444)" >B</text>
<text fill="#ff0000"  xml:space="preserve" font-size="9.3377" transform="translate(755.896, 306.444)" >G</text>
<text fill="#cccccc"  xml:space="preserve" font-size="12.4503" transform="translate(810.781, 296.486)" >pfet_01v8</text>
<text fill="#aaaa00"  xml:space="preserve" font-size="12.4503" transform="translate(812.278, 337.703)" >1 x 80 / 0.15</text>
<text fill="#aaaa00"  xml:space="preserve" font-size="12.4503" transform="translate(812.278, 322.738)" >nf=1</text>
<text fill="#cccccc"  xml:space="preserve" font-size="12.4503" transform="translate(761.853, 572.641)" >M5</text>
<text fill="#ff0000"  xml:space="preserve" font-size="9.3377" transform="translate(801.803, 626.679)" >S</text>
<text fill="#ff0000"  xml:space="preserve" font-size="9.3377" transform="translate(801.803, 574.069)" >D</text>
<text fill="#ff0000"  xml:space="preserve" font-size="9.3377" transform="translate(798.81, 593.758)" >B</text>
<text fill="#ff0000"  xml:space="preserve" font-size="9.3377" transform="translate(755.896, 593.758)" >G</text>
<text fill="#cccccc"  xml:space="preserve" font-size="12.4503" transform="translate(810.781, 583.8)" >nfet_01v8</text>
<text fill="#aaaa00"  xml:space="preserve" font-size="12.4503" transform="translate(812.278, 625.016)" >1 x 30 / 0.15</text>
<text fill="#aaaa00"  xml:space="preserve" font-size="12.4503" transform="translate(812.278, 610.052)" >nf=1</text>
<text fill="#cccccc"  xml:space="preserve" font-size="12.4503" transform="translate(761.853, 428.985)" >M6</text>
<text fill="#ff0000"  xml:space="preserve" font-size="9.3377" transform="translate(801.803, 483.023)" >S</text>
<text fill="#ff0000"  xml:space="preserve" font-size="9.3377" transform="translate(801.803, 430.412)" >D</text>
<text fill="#ff0000"  xml:space="preserve" font-size="9.3377" transform="translate(798.81, 450.101)" >B</text>
<text fill="#ff0000"  xml:space="preserve" font-size="9.3377" transform="translate(755.896, 450.101)" >G</text>
<text fill="#cccccc"  xml:space="preserve" font-size="12.4503" transform="translate(810.781, 440.143)" >nfet_01v8</text>
<text fill="#aaaa00"  xml:space="preserve" font-size="12.4503" transform="translate(812.278, 481.359)" >1 x 30 / 0.15</text>
<text fill="#aaaa00"  xml:space="preserve" font-size="12.4503" transform="translate(812.278, 466.395)" >nf=1</text>
<text fill="#cccccc"  xml:space="preserve" font-size="12.4503" transform="translate(1013.25, 141.671)" >M7</text>
<text fill="#ff0000"  xml:space="preserve" font-size="9.3377" transform="translate(1053.2, 195.709)" >D</text>
<text fill="#ff0000"  xml:space="preserve" font-size="9.3377" transform="translate(1053.2, 143.098)" >S</text>
<text fill="#ff0000"  xml:space="preserve" font-size="9.3377" transform="translate(1050.21, 162.787)" >B</text>
<text fill="#ff0000"  xml:space="preserve" font-size="9.3377" transform="translate(1007.3, 162.787)" >G</text>
<text fill="#cccccc"  xml:space="preserve" font-size="12.4503" transform="translate(1062.18, 152.83)" >pfet_01v8</text>
<text fill="#aaaa00"  xml:space="preserve" font-size="12.4503" transform="translate(1063.68, 194.046)" >2 x 80 / 0.15</text>
<text fill="#aaaa00"  xml:space="preserve" font-size="12.4503" transform="translate(1063.68, 179.081)" >nf=1</text>
<text fill="#cccccc"  xml:space="preserve" font-size="12.4503" transform="translate(1013.25, 285.328)" >M8</text>
<text fill="#ff0000"  xml:space="preserve" font-size="9.3377" transform="translate(1053.2, 339.366)" >D</text>
<text fill="#ff0000"  xml:space="preserve" font-size="9.3377" transform="translate(1053.2, 286.755)" >S</text>
<text fill="#ff0000"  xml:space="preserve" font-size="9.3377" transform="translate(1050.21, 306.444)" >B</text>
<text fill="#ff0000"  xml:space="preserve" font-size="9.3377" transform="translate(1007.3, 306.444)" >G</text>
<text fill="#cccccc"  xml:space="preserve" font-size="12.4503" transform="translate(1062.18, 296.486)" >pfet_01v8</text>
<text fill="#aaaa00"  xml:space="preserve" font-size="12.4503" transform="translate(1063.68, 337.703)" >2 x 80 / 0.15</text>
<text fill="#aaaa00"  xml:space="preserve" font-size="12.4503" transform="translate(1063.68, 322.738)" >nf=1</text>
<text fill="#cccccc"  xml:space="preserve" font-size="12.4503" transform="translate(1013.25, 572.641)" >M9</text>
<text fill="#ff0000"  xml:space="preserve" font-size="9.3377" transform="translate(1053.2, 626.679)" >S</text>
<text fill="#ff0000"  xml:space="preserve" font-size="9.3377" transform="translate(1053.2, 574.069)" >D</text>
<text fill="#ff0000"  xml:space="preserve" font-size="9.3377" transform="translate(1050.21, 593.758)" >B</text>
<text fill="#ff0000"  xml:space="preserve" font-size="9.3377" transform="translate(1007.3, 593.758)" >G</text>
<text fill="#cccccc"  xml:space="preserve" font-size="12.4503" transform="translate(1062.18, 583.8)" >nfet_01v8</text>
<text fill="#aaaa00"  xml:space="preserve" font-size="12.4503" transform="translate(1063.68, 625.016)" >1 x 60 / 0.15</text>
<text fill="#aaaa00"  xml:space="preserve" font-size="12.4503" transform="translate(1063.68, 610.052)" >nf=1</text>
<text fill="#cccccc"  xml:space="preserve" font-size="12.4503" transform="translate(1005.25, 428.985)" >M10</text>
<text fill="#ff0000"  xml:space="preserve" font-size="9.3377" transform="translate(1053.2, 483.023)" >S</text>
<text fill="#ff0000"  xml:space="preserve" font-size="9.3377" transform="translate(1053.2, 430.412)" >D</text>
<text fill="#ff0000"  xml:space="preserve" font-size="9.3377" transform="translate(1050.21, 450.101)" >B</text>
<text fill="#ff0000"  xml:space="preserve" font-size="9.3377" transform="translate(1007.3, 450.101)" >G</text>
<text fill="#cccccc"  xml:space="preserve" font-size="12.4503" transform="translate(1062.18, 440.143)" >nfet_01v8</text>
<text fill="#aaaa00"  xml:space="preserve" font-size="12.4503" transform="translate(1063.68, 481.359)" >1 x 60 / 0.15</text>
<text fill="#aaaa00"  xml:space="preserve" font-size="12.4503" transform="translate(1063.68, 466.395)" >nf=1</text>
<text fill="#cccccc"  xml:space="preserve" font-size="12.4503" transform="translate(1232.71, 141.671)" >M11</text>
<text fill="#ff0000"  xml:space="preserve" font-size="9.3377" transform="translate(1280.66, 195.709)" >D</text>
<text fill="#ff0000"  xml:space="preserve" font-size="9.3377" transform="translate(1280.66, 143.098)" >S</text>
<text fill="#ff0000"  xml:space="preserve" font-size="9.3377" transform="translate(1277.67, 162.787)" >B</text>
<text fill="#ff0000"  xml:space="preserve" font-size="9.3377" transform="translate(1234.75, 162.787)" >G</text>
<text fill="#cccccc"  xml:space="preserve" font-size="12.4503" transform="translate(1289.64, 152.83)" >pfet_01v8</text>
<text fill="#aaaa00"  xml:space="preserve" font-size="12.4503" transform="translate(1291.13, 194.046)" >3 x 80 / 0.15</text>
<text fill="#aaaa00"  xml:space="preserve" font-size="12.4503" transform="translate(1291.13, 179.081)" >nf=1</text>
<text fill="#cccccc"  xml:space="preserve" font-size="12.4503" transform="translate(1232.71, 285.328)" >M12</text>
<text fill="#ff0000"  xml:space="preserve" font-size="9.3377" transform="translate(1280.66, 339.366)" >D</text>
<text fill="#ff0000"  xml:space="preserve" font-size="9.3377" transform="translate(1280.66, 286.755)" >S</text>
<text fill="#ff0000"  xml:space="preserve" font-size="9.3377" transform="translate(1277.67, 306.444)" >B</text>
<text fill="#ff0000"  xml:space="preserve" font-size="9.3377" transform="translate(1234.75, 306.444)" >G</text>
<text fill="#cccccc"  xml:space="preserve" font-size="12.4503" transform="translate(1289.64, 296.486)" >pfet_01v8</text>
<text fill="#aaaa00"  xml:space="preserve" font-size="12.4503" transform="translate(1291.13, 337.703)" >3 x 80 / 0.15</text>
<text fill="#aaaa00"  xml:space="preserve" font-size="12.4503" transform="translate(1291.13, 322.738)" >nf=1</text>
<text fill="#cccccc"  xml:space="preserve" font-size="12.4503" transform="translate(1232.71, 572.641)" >M13</text>
<text fill="#ff0000"  xml:space="preserve" font-size="9.3377" transform="translate(1280.66, 626.679)" >S</text>
<text fill="#ff0000"  xml:space="preserve" font-size="9.3377" transform="translate(1280.66, 574.069)" >D</text>
<text fill="#ff0000"  xml:space="preserve" font-size="9.3377" transform="translate(1277.67, 593.758)" >B</text>
<text fill="#ff0000"  xml:space="preserve" font-size="9.3377" transform="translate(1234.75, 593.758)" >G</text>
<text fill="#cccccc"  xml:space="preserve" font-size="12.4503" transform="translate(1289.64, 583.8)" >nfet_01v8</text>
<text fill="#aaaa00"  xml:space="preserve" font-size="12.4503" transform="translate(1291.13, 625.016)" >1 x 90 / 0.15</text>
<text fill="#aaaa00"  xml:space="preserve" font-size="12.4503" transform="translate(1291.13, 610.052)" >nf=1</text>
<text fill="#cccccc"  xml:space="preserve" font-size="12.4503" transform="translate(1232.71, 428.985)" >M14</text>
<text fill="#ff0000"  xml:space="preserve" font-size="9.3377" transform="translate(1280.66, 483.023)" >S</text>
<text fill="#ff0000"  xml:space="preserve" font-size="9.3377" transform="translate(1280.66, 430.412)" >D</text>
<text fill="#ff0000"  xml:space="preserve" font-size="9.3377" transform="translate(1277.67, 450.101)" >B</text>
<text fill="#ff0000"  xml:space="preserve" font-size="9.3377" transform="translate(1234.75, 450.101)" >G</text>
<text fill="#cccccc"  xml:space="preserve" font-size="12.4503" transform="translate(1289.64, 440.143)" >nfet_01v8</text>
<text fill="#aaaa00"  xml:space="preserve" font-size="12.4503" transform="translate(1291.13, 481.359)" >1 x 90 / 0.15</text>
<text fill="#aaaa00"  xml:space="preserve" font-size="12.4503" transform="translate(1291.13, 466.395)" >nf=1</text>
<path class="l4" d="M520.475 570.315L520.475 624.186"/>
<path class="l4" d="M487.553 597.251L514.489 597.251"/>
<path class="l4" d="M535.439 561.337L535.439 576.301"/>
<path class="l4" d="M535.439 618.201L535.439 633.165"/>
<path class="l4" d="M514.489 579.294L514.489 615.208"/>
<path class="l4" d="M520.475 576.301L535.439 576.301"/>
<path class="l4" d="M520.475 618.201L529.453 618.201"/>
<path class="l4" d="M529.453 615.208L535.439 618.201L529.453 621.194L529.453 615.208"/>
<path class="l4" d="M550.403 139.344L550.403 193.216"/>
<path class="l4" d="M535.439 130.366L535.439 145.33"/>
<path class="l4" d="M535.439 187.23L535.439 202.194"/>
<path class="l4" d="M556.389 148.323L556.389 184.237"/>
<path class="l4" d="M535.439 187.23L550.403 187.23"/>
<path class="l4" d="M535.439 145.33L544.417 145.33"/>
<path class="l4" d="M568.36 166.28L583.325 166.28"/>
<path class="l4" d="M544.417 142.337L550.403 145.33L544.417 148.323L544.417 142.337"/>
<circle class="l4" cx="562.375" cy="166.28" r="5.9857" style="fill:none;" />
<path class="l4" d="M783.846 139.344L783.846 193.216"/>
<path class="l4" d="M798.81 130.366L798.81 145.33"/>
<path class="l4" d="M798.81 187.23L798.81 202.194"/>
<path class="l4" d="M777.86 148.323L777.86 184.237"/>
<path class="l4" d="M783.846 187.23L798.81 187.23"/>
<path class="l4" d="M789.831 145.33L798.81 145.33"/>
<path class="l4" d="M750.924 166.28L765.888 166.28"/>
<path class="l4" d="M789.831 142.337L783.846 145.33L789.831 148.323L789.831 142.337"/>
<circle class="l4" cx="771.874" cy="166.28" r="5.9857" style="fill:none;" />
<path class="l4" d="M783.846 283.001L783.846 336.873"/>
<path class="l4" d="M798.81 274.023L798.81 288.987"/>
<path class="l4" d="M798.81 330.887L798.81 345.851"/>
<path class="l4" d="M777.86 291.98L777.86 327.894"/>
<path class="l4" d="M783.846 330.887L798.81 330.887"/>
<path class="l4" d="M789.831 288.987L798.81 288.987"/>
<path class="l4" d="M750.924 309.937L765.888 309.937"/>
<path class="l4" d="M789.831 285.994L783.846 288.987L789.831 291.98L789.831 285.994"/>
<circle class="l4" cx="771.874" cy="309.937" r="5.9857" style="fill:none;" />
<path class="l4" d="M783.846 570.315L783.846 624.186"/>
<path class="l4" d="M750.924 597.251L777.86 597.251"/>
<path class="l4" d="M798.81 561.337L798.81 576.301"/>
<path class="l4" d="M798.81 618.201L798.81 633.165"/>
<path class="l4" d="M777.86 579.294L777.86 615.208"/>
<path class="l4" d="M783.846 576.301L798.81 576.301"/>
<path class="l4" d="M783.846 618.201L792.824 618.201"/>
<path class="l4" d="M792.824 615.208L798.81 618.201L792.824 621.194L792.824 615.208"/>
<path class="l4" d="M783.846 426.658L783.846 480.53"/>
<path class="l4" d="M750.924 453.594L777.86 453.594"/>
<path class="l4" d="M798.81 417.68L798.81 432.644"/>
<path class="l4" d="M798.81 474.544L798.81 489.508"/>
<path class="l4" d="M777.86 435.637L777.86 471.551"/>
<path class="l4" d="M783.846 432.644L798.81 432.644"/>
<path class="l4" d="M783.846 474.544L792.824 474.544"/>
<path class="l4" d="M792.824 471.551L798.81 474.544L792.824 477.537L792.824 471.551"/>
<path class="l4" d="M1035.25 139.344L1035.25 193.216"/>
<path class="l4" d="M1050.21 130.366L1050.21 145.33"/>
<path class="l4" d="M1050.21 187.23L1050.21 202.194"/>
<path class="l4" d="M1029.26 148.323L1029.26 184.237"/>
<path class="l4" d="M1035.25 187.23L1050.21 187.23"/>
<path class="l4" d="M1041.23 145.33L1050.21 145.33"/>
<path class="l4" d="M1002.32 166.28L1017.29 166.28"/>
<path class="l4" d="M1041.23 142.337L1035.25 145.33L1041.23 148.323L1041.23 142.337"/>
<circle class="l4" cx="1023.27" cy="166.28" r="5.9857" style="fill:none;" />
<path class="l4" d="M1035.25 283.001L1035.25 336.873"/>
<path class="l4" d="M1050.21 274.023L1050.21 288.987"/>
<path class="l4" d="M1050.21 330.887L1050.21 345.851"/>
<path class="l4" d="M1029.26 291.98L1029.26 327.894"/>
<path class="l4" d="M1035.25 330.887L1050.21 330.887"/>
<path class="l4" d="M1041.23 288.987L1050.21 288.987"/>
<path class="l4" d="M1002.32 309.937L1017.29 309.937"/>
<path class="l4" d="M1041.23 285.994L1035.25 288.987L1041.23 291.98L1041.23 285.994"/>
<circle class="l4" cx="1023.27" cy="309.937" r="5.9857" style="fill:none;" />
<path class="l4" d="M1035.25 570.315L1035.25 624.186"/>
<path class="l4" d="M1002.32 597.251L1029.26 597.251"/>
<path class="l4" d="M1050.21 561.337L1050.21 576.301"/>
<path class="l4" d="M1050.21 618.201L1050.21 633.165"/>
<path class="l4" d="M1029.26 579.294L1029.26 615.208"/>
<path class="l4" d="M1035.25 576.301L1050.21 576.301"/>
<path class="l4" d="M1035.25 618.201L1044.22 618.201"/>
<path class="l4" d="M1044.22 615.208L1050.21 618.201L1044.22 621.194L1044.22 615.208"/>
<path class="l4" d="M1035.25 426.658L1035.25 480.53"/>
<path class="l4" d="M1002.32 453.594L1029.26 453.594"/>
<path class="l4" d="M1050.21 417.68L1050.21 432.644"/>
<path class="l4" d="M1050.21 474.544L1050.21 489.508"/>
<path class="l4" d="M1029.26 435.637L1029.26 471.551"/>
<path class="l4" d="M1035.25 432.644L1050.21 432.644"/>
<path class="l4" d="M1035.25 474.544L1044.22 474.544"/>
<path class="l4" d="M1044.22 471.551L1050.21 474.544L1044.22 477.537L1044.22 471.551"/>
<path class="l4" d="M1262.7 139.344L1262.7 193.216"/>
<path class="l4" d="M1277.67 130.366L1277.67 145.33"/>
<path class="l4" d="M1277.67 187.23L1277.67 202.194"/>
<path class="l4" d="M1256.72 148.323L1256.72 184.237"/>
<path class="l4" d="M1262.7 187.23L1277.67 187.23"/>
<path class="l4" d="M1268.69 145.33L1277.67 145.33"/>
<path class="l4" d="M1229.78 166.28L1244.74 166.28"/>
<path class="l4" d="M1268.69 142.337L1262.7 145.33L1268.69 148.323L1268.69 142.337"/>
<circle class="l4" cx="1250.73" cy="166.28" r="5.9857" style="fill:none;" />
<path class="l4" d="M1262.7 283.001L1262.7 336.873"/>
<path class="l4" d="M1277.67 274.023L1277.67 288.987"/>
<path class="l4" d="M1277.67 330.887L1277.67 345.851"/>
<path class="l4" d="M1256.72 291.98L1256.72 327.894"/>
<path class="l4" d="M1262.7 330.887L1277.67 330.887"/>
<path class="l4" d="M1268.69 288.987L1277.67 288.987"/>
<path class="l4" d="M1229.78 309.937L1244.74 309.937"/>
<path class="l4" d="M1268.69 285.994L1262.7 288.987L1268.69 291.98L1268.69 285.994"/>
<circle class="l4" cx="1250.73" cy="309.937" r="5.9857" style="fill:none;" />
<path class="l4" d="M1262.7 570.315L1262.7 624.186"/>
<path class="l4" d="M1229.78 597.251L1256.72 597.251"/>
<path class="l4" d="M1277.67 561.337L1277.67 576.301"/>
<path class="l4" d="M1277.67 618.201L1277.67 633.165"/>
<path class="l4" d="M1256.72 579.294L1256.72 615.208"/>
<path class="l4" d="M1262.7 576.301L1277.67 576.301"/>
<path class="l4" d="M1262.7 618.201L1271.68 618.201"/>
<path class="l4" d="M1271.68 615.208L1277.67 618.201L1271.68 621.194L1271.68 615.208"/>
<path class="l4" d="M1262.7 426.658L1262.7 480.53"/>
<path class="l4" d="M1229.78 453.594L1256.72 453.594"/>
<path class="l4" d="M1277.67 417.68L1277.67 432.644"/>
<path class="l4" d="M1277.67 474.544L1277.67 489.508"/>
<path class="l4" d="M1256.72 435.637L1256.72 471.551"/>
<path class="l4" d="M1262.7 432.644L1277.67 432.644"/>
<path class="l4" d="M1262.7 474.544L1271.68 474.544"/>
<path class="l4" d="M1271.68 471.551L1277.67 474.544L1271.68 477.537L1271.68 471.551"/>
<path class="l5" d="M535.439 594.258L529.453 597.251L535.439 600.244L535.439 594.258"/>
<path class="l5" d="M532.446 558.344L538.432 558.344L538.432 564.329L532.446 564.329L532.446 558.344z"/>
<path class="l5" d="M484.56 594.258L490.546 594.258L490.546 600.244L484.56 600.244L484.56 594.258z"/>
<path class="l5" d="M532.446 630.172L538.432 630.172L538.432 636.158L532.446 636.158L532.446 630.172z"/>
<path class="l5" d="M535.345 597.157L535.532 597.157L535.532 597.344L535.345 597.344L535.345 597.157z"/>
<path class="l5" d="M541.425 163.287L535.439 166.28L541.425 169.273L541.425 163.287"/>
<path class="l5" d="M532.446 199.201L538.432 199.201L538.432 205.187L532.446 205.187L532.446 199.201z"/>
<path class="l5" d="M580.332 163.287L586.317 163.287L586.317 169.273L580.332 169.273L580.332 163.287z"/>
<path class="l5" d="M532.446 127.373L538.432 127.373L538.432 133.359L532.446 133.359L532.446 127.373z"/>
<path class="l5" d="M535.345 166.187L535.532 166.187L535.532 166.374L535.345 166.374L535.345 166.187z"/>
<path class="l5" d="M792.824 163.287L798.81 166.28L792.824 169.273L792.824 163.287"/>
<path class="l5" d="M795.817 199.201L801.803 199.201L801.803 205.187L795.817 205.187L795.817 199.201z"/>
<path class="l5" d="M747.931 163.287L753.917 163.287L753.917 169.273L747.931 169.273L747.931 163.287z"/>
<path class="l5" d="M795.817 127.373L801.803 127.373L801.803 133.359L795.817 133.359L795.817 127.373z"/>
<path class="l5" d="M798.716 166.187L798.903 166.187L798.903 166.374L798.716 166.374L798.716 166.187z"/>
<path class="l5" d="M792.824 306.944L798.81 309.937L792.824 312.93L792.824 306.944"/>
<path class="l5" d="M795.817 342.858L801.803 342.858L801.803 348.844L795.817 348.844L795.817 342.858z"/>
<path class="l5" d="M747.931 306.944L753.917 306.944L753.917 312.93L747.931 312.93L747.931 306.944z"/>
<path class="l5" d="M795.817 271.03L801.803 271.03L801.803 277.016L795.817 277.016L795.817 271.03z"/>
<path class="l5" d="M798.716 309.843L798.903 309.843L798.903 310.031L798.716 310.031L798.716 309.843z"/>
<path class="l5" d="M798.81 594.258L792.824 597.251L798.81 600.244L798.81 594.258"/>
<path class="l5" d="M795.817 558.344L801.803 558.344L801.803 564.329L795.817 564.329L795.817 558.344z"/>
<path class="l5" d="M747.931 594.258L753.917 594.258L753.917 600.244L747.931 600.244L747.931 594.258z"/>
<path class="l5" d="M795.817 630.172L801.803 630.172L801.803 636.158L795.817 636.158L795.817 630.172z"/>
<path class="l5" d="M798.716 597.157L798.903 597.157L798.903 597.344L798.716 597.344L798.716 597.157z"/>
<path class="l5" d="M798.81 450.601L792.824 453.594L798.81 456.587L798.81 450.601"/>
<path class="l5" d="M795.817 414.687L801.803 414.687L801.803 420.673L795.817 420.673L795.817 414.687z"/>
<path class="l5" d="M747.931 450.601L753.917 450.601L753.917 456.587L747.931 456.587L747.931 450.601z"/>
<path class="l5" d="M795.817 486.515L801.803 486.515L801.803 492.501L795.817 492.501L795.817 486.515z"/>
<path class="l5" d="M798.716 453.5L798.903 453.5L798.903 453.687L798.716 453.687L798.716 453.5z"/>
<path class="l5" d="M1044.22 163.287L1050.21 166.28L1044.22 169.273L1044.22 163.287"/>
<path class="l5" d="M1047.22 199.201L1053.2 199.201L1053.2 205.187L1047.22 205.187L1047.22 199.201z"/>
<path class="l5" d="M999.331 163.287L1005.32 163.287L1005.32 169.273L999.331 169.273L999.331 163.287z"/>
<path class="l5" d="M1047.22 127.373L1053.2 127.373L1053.2 133.359L1047.22 133.359L1047.22 127.373z"/>
<path class="l5" d="M1050.12 166.187L1050.3 166.187L1050.3 166.374L1050.12 166.374L1050.12 166.187z"/>
<path class="l5" d="M1044.22 306.944L1050.21 309.937L1044.22 312.93L1044.22 306.944"/>
<path class="l5" d="M1047.22 342.858L1053.2 342.858L1053.2 348.844L1047.22 348.844L1047.22 342.858z"/>
<path class="l5" d="M999.331 306.944L1005.32 306.944L1005.32 312.93L999.331 312.93L999.331 306.944z"/>
<path class="l5" d="M1047.22 271.03L1053.2 271.03L1053.2 277.016L1047.22 277.016L1047.22 271.03z"/>
<path class="l5" d="M1050.12 309.843L1050.3 309.843L1050.3 310.031L1050.12 310.031L1050.12 309.843z"/>
<path class="l5" d="M1050.21 594.258L1044.22 597.251L1050.21 600.244L1050.21 594.258"/>
<path class="l5" d="M1047.22 558.344L1053.2 558.344L1053.2 564.329L1047.22 564.329L1047.22 558.344z"/>
<path class="l5" d="M999.331 594.258L1005.32 594.258L1005.32 600.244L999.331 600.244L999.331 594.258z"/>
<path class="l5" d="M1047.22 630.172L1053.2 630.172L1053.2 636.158L1047.22 636.158L1047.22 630.172z"/>
<path class="l5" d="M1050.12 597.157L1050.3 597.157L1050.3 597.344L1050.12 597.344L1050.12 597.157z"/>
<path class="l5" d="M1050.21 450.601L1044.22 453.594L1050.21 456.587L1050.21 450.601"/>
<path class="l5" d="M1047.22 414.687L1053.2 414.687L1053.2 420.673L1047.22 420.673L1047.22 414.687z"/>
<path class="l5" d="M999.331 450.601L1005.32 450.601L1005.32 456.587L999.331 456.587L999.331 450.601z"/>
<path class="l5" d="M1047.22 486.515L1053.2 486.515L1053.2 492.501L1047.22 492.501L1047.22 486.515z"/>
<path class="l5" d="M1050.12 453.5L1050.3 453.5L1050.3 453.687L1050.12 453.687L1050.12 453.5z"/>
<path class="l5" d="M1271.68 163.287L1277.67 166.28L1271.68 169.273L1271.68 163.287"/>
<path class="l5" d="M1274.67 199.201L1280.66 199.201L1280.66 205.187L1274.67 205.187L1274.67 199.201z"/>
<path class="l5" d="M1226.79 163.287L1232.77 163.287L1232.77 169.273L1226.79 169.273L1226.79 163.287z"/>
<path class="l5" d="M1274.67 127.373L1280.66 127.373L1280.66 133.359L1274.67 133.359L1274.67 127.373z"/>
<path class="l5" d="M1277.57 166.187L1277.76 166.187L1277.76 166.374L1277.57 166.374L1277.57 166.187z"/>
<path class="l5" d="M1271.68 306.944L1277.67 309.937L1271.68 312.93L1271.68 306.944"/>
<path class="l5" d="M1274.67 342.858L1280.66 342.858L1280.66 348.844L1274.67 348.844L1274.67 342.858z"/>
<path class="l5" d="M1226.79 306.944L1232.77 306.944L1232.77 312.93L1226.79 312.93L1226.79 306.944z"/>
<path class="l5" d="M1274.67 271.03L1280.66 271.03L1280.66 277.016L1274.67 277.016L1274.67 271.03z"/>
<path class="l5" d="M1277.57 309.843L1277.76 309.843L1277.76 310.031L1277.57 310.031L1277.57 309.843z"/>
<path class="l5" d="M1277.67 594.258L1271.68 597.251L1277.67 600.244L1277.67 594.258"/>
<path class="l5" d="M1274.67 558.344L1280.66 558.344L1280.66 564.329L1274.67 564.329L1274.67 558.344z"/>
<path class="l5" d="M1226.79 594.258L1232.77 594.258L1232.77 600.244L1226.79 600.244L1226.79 594.258z"/>
<path class="l5" d="M1274.67 630.172L1280.66 630.172L1280.66 636.158L1274.67 636.158L1274.67 630.172z"/>
<path class="l5" d="M1277.57 597.157L1277.76 597.157L1277.76 597.344L1277.57 597.344L1277.57 597.157z"/>
<path class="l5" d="M1277.67 450.601L1271.68 453.594L1277.67 456.587L1277.67 450.601"/>
<path class="l5" d="M1274.67 414.687L1280.66 414.687L1280.66 420.673L1274.67 420.673L1274.67 414.687z"/>
<path class="l5" d="M1226.79 450.601L1232.77 450.601L1232.77 456.587L1226.79 456.587L1226.79 450.601z"/>
<path class="l5" d="M1274.67 486.515L1280.66 486.515L1280.66 492.501L1274.67 492.501L1274.67 486.515z"/>
<path class="l5" d="M1277.57 453.5L1277.76 453.5L1277.76 453.687L1277.57 453.687L1277.57 453.5z"/>
<path class="l5" d="M930.495 22.6232L934.236 22.6232"/>
<path class="l5" d="M946.956 28.6089L951.445 22.6232L946.956 16.6375L938.726 16.6375L934.236 22.6232L938.726 28.6089L946.956 28.6089"/>
<path class="l5" d="M928.999 21.1268L931.992 21.1268L931.992 24.1196L928.999 24.1196L928.999 21.1268z"/>
<path class="l5" d="M918.524 728.936L922.265 728.936"/>
<path class="l5" d="M934.985 734.922L939.474 728.936L934.985 722.951L926.754 722.951L922.265 728.936L926.754 734.922L934.985 734.922"/>
<path class="l5" d="M917.028 727.44L920.02 727.44L920.02 730.433L917.028 730.433L917.028 727.44z"/>
<path class="l5" d="M1433.29 381.765L1437.04 381.765"/>
<path class="l5" d="M1449.76 387.751L1454.24 381.765L1449.76 375.78L1441.52 375.78L1437.04 381.765L1441.52 387.751L1449.76 387.751"/>
<path class="l5" d="M1431.8 380.269L1434.79 380.269L1434.79 383.262L1431.8 383.262L1431.8 380.269z"/>
<path class="l5" d="M423.955 597.251L427.696 597.251"/>
<path class="l5" d="M411.236 591.265L406.746 597.251L411.236 603.237L419.466 603.237L423.955 597.251L419.466 591.265L411.236 591.265"/>
<path class="l5" d="M426.2 595.754L429.193 595.754L429.193 598.747L426.2 598.747L426.2 595.754z"/>
<path class="l1" d="M583.325 166.28L750.924 166.28"/>
<path class="l1" d="M535.439 202.194L535.439 561.337"/>
<path class="l1" d="M535.439 82.4802L535.439 130.366"/>
<path class="l1" d="M535.439 82.4802L798.81 82.4802"/>
<path class="l1" d="M798.81 82.4802L798.81 130.366"/>
<path class="l1" d="M535.439 633.165L535.439 681.051"/>
<path class="l1" d="M535.439 681.051L798.81 681.051"/>
<path class="l1" d="M798.81 633.165L798.81 681.051"/>
<path class="l1" d="M798.81 489.508L798.81 561.337"/>
<path class="l1" d="M798.81 345.851L798.81 417.68"/>
<path class="l1" d="M798.81 202.194L798.81 274.023"/>
<path class="l1" d="M1050.21 633.165L1050.21 681.051"/>
<path class="l1" d="M1050.21 489.508L1050.21 561.337"/>
<path class="l1" d="M1050.21 345.851L1050.21 417.68"/>
<path class="l1" d="M1050.21 202.194L1050.21 274.023"/>
<path class="l1" d="M1277.67 633.165L1277.67 681.051"/>
<path class="l1" d="M1277.67 489.508L1277.67 561.337"/>
<path class="l1" d="M1277.67 345.851L1277.67 417.68"/>
<path class="l1" d="M1277.67 202.194L1277.67 274.023"/>
<path class="l1" d="M798.81 681.051L1277.67 681.051"/>
<path class="l1" d="M798.81 82.4802L1277.67 82.4802"/>
<path class="l1" d="M1277.67 82.4802L1277.67 130.366"/>
<path class="l1" d="M1050.21 82.4802L1050.21 130.366"/>
<path class="l1" d="M535.439 597.251L559.382 597.251"/>
<path class="l1" d="M559.382 597.251L559.382 681.051"/>
<path class="l1" d="M798.81 597.251L822.753 597.251"/>
<path class="l1" d="M822.753 597.251L822.753 681.051"/>
<path class="l1" d="M1050.21 597.251L1074.15 597.251"/>
<path class="l1" d="M1074.15 597.251L1074.15 681.051"/>
<path class="l1" d="M1277.67 597.251L1301.61 597.251"/>
<path class="l1" d="M1301.61 597.251L1301.61 681.051"/>
<path class="l1" d="M1277.67 681.051L1301.61 681.051"/>
<path class="l1" d="M798.81 166.28L822.753 166.28"/>
<path class="l1" d="M822.753 82.4802L822.753 166.28"/>
<path class="l1" d="M1050.21 166.28L1074.15 166.28"/>
<path class="l1" d="M1074.15 82.4802L1074.15 166.28"/>
<path class="l1" d="M1277.67 166.28L1301.61 166.28"/>
<path class="l1" d="M1301.61 82.4802L1301.61 166.28"/>
<path class="l1" d="M1277.67 82.4802L1301.61 82.4802"/>
<path class="l1" d="M715.01 309.937L750.924 309.937"/>
<path class="l1" d="M715.01 309.937L715.01 453.594"/>
<path class="l1" d="M715.01 453.594L750.924 453.594"/>
<path class="l1" d="M966.41 453.594L1002.32 453.594"/>
<path class="l1" d="M966.41 309.937L966.41 453.594"/>
<path class="l1" d="M966.41 309.937L1002.32 309.937"/>
<path class="l1" d="M1193.87 453.594L1229.78 453.594"/>
<path class="l1" d="M1193.87 309.937L1193.87 453.594"/>
<path class="l1" d="M1193.87 309.937L1229.78 309.937"/>
<path class="l1" d="M798.81 381.765L966.41 381.765"/>
<path class="l1" d="M1050.21 381.765L1193.87 381.765"/>
<path class="l1" d="M1277.67 381.765L1445.27 381.765"/>
<path class="l1" d="M667.124 381.765L715.01 381.765"/>
<path class="l1" d="M798.81 309.937L822.753 309.937"/>
<path class="l1" d="M822.753 250.08L822.753 309.937"/>
<path class="l1" d="M798.81 250.08L822.753 250.08"/>
<path class="l1" d="M1050.21 309.937L1074.15 309.937"/>
<path class="l1" d="M1074.15 250.08L1074.15 309.937"/>
<path class="l1" d="M1050.21 250.08L1074.15 250.08"/>
<path class="l1" d="M1277.67 309.937L1301.61 309.937"/>
<path class="l1" d="M1301.61 250.08L1301.61 309.937"/>
<path class="l1" d="M1277.67 250.08L1289.64 250.08"/>
<path class="l1" d="M1289.64 250.08L1301.61 250.08"/>
<path class="l1" d="M798.81 453.594L822.753 453.594"/>
<path class="l1" d="M822.753 453.594L822.753 597.251"/>
<path class="l1" d="M1074.15 453.594L1074.15 597.251"/>
<path class="l1" d="M1050.21 453.594L1074.15 453.594"/>
<path class="l1" d="M1277.67 453.594L1301.61 453.594"/>
<path class="l1" d="M1301.61 453.594L1301.61 597.251"/>
<path class="l1" d="M511.496 166.28L535.439 166.28"/>
<path class="l1" d="M511.496 82.4802L511.496 166.28"/>
<path class="l1" d="M595.296 166.28L595.296 214.166"/>
<path class="l1" d="M535.439 214.166L595.296 214.166"/>
<path class="l1" d="M595.296 214.166L1229.78 214.166"/>
<path class="l1" d="M1002.32 166.28L1002.32 214.166"/>
<path class="l1" d="M1229.78 166.28L1229.78 214.166"/>
<path class="l1" d="M463.61 597.251L463.61 657.108"/>
<path class="l1" d="M463.61 657.108L1229.78 657.108"/>
<path class="l1" d="M750.924 597.251L750.924 657.108"/>
<path class="l1" d="M1002.32 597.251L1002.32 657.108"/>
<path class="l1" d="M1229.78 597.251L1229.78 657.108"/>
<path class="l1" d="M918.524 681.051L918.524 728.936"/>
<path class="l1" d="M1397.38 58.5374L1397.38 381.765"/>
<path class="l1" d="M667.124 58.5374L1397.38 58.5374"/>
<path class="l1" d="M667.124 58.5374L667.124 381.765"/>
<path class="l1" d="M930.495 22.6232L930.495 82.4802"/>
<path class="l1" d="M511.496 82.4802L535.439 82.4802"/>
<path class="l1" d="M427.696 597.251L487.553 597.251"/>
<circle class="l1" cx="535.439" cy="82.4802" r="4.42942"/>
<circle class="l1" cx="595.296" cy="214.166" r="4.42942"/>
<circle class="l1" cx="535.439" cy="214.166" r="4.42942"/>
<circle class="l1" cx="595.296" cy="214.166" r="4.42942"/>
<circle class="l1" cx="595.296" cy="166.28" r="4.42942"/>
<circle class="l1" cx="595.296" cy="214.166" r="4.42942"/>
<circle class="l1" cx="535.439" cy="82.4802" r="4.42942"/>
<circle class="l1" cx="798.81" cy="82.4802" r="4.42942"/>
<circle class="l1" cx="535.439" cy="82.4802" r="4.42942"/>
<circle class="l1" cx="463.61" cy="597.251" r="4.42942"/>
<circle class="l1" cx="715.01" cy="381.765" r="4.42942"/>
<circle class="l1" cx="559.382" cy="681.051" r="4.42942"/>
<circle class="l1" cx="798.81" cy="681.051" r="4.42942"/>
<circle class="l1" cx="930.495" cy="82.4802" r="4.42942"/>
<circle class="l1" cx="1002.32" cy="214.166" r="4.42942"/>
<circle class="l1" cx="1050.21" cy="250.08" r="4.42942"/>
<circle class="l1" cx="798.81" cy="250.08" r="4.42942"/>
<circle class="l1" cx="1074.15" cy="82.4802" r="4.42942"/>
<circle class="l1" cx="822.753" cy="82.4802" r="4.42942"/>
<circle class="l1" cx="1050.21" cy="82.4802" r="4.42942"/>
<circle class="l1" cx="798.81" cy="82.4802" r="4.42942"/>
<circle class="l1" cx="1277.67" cy="82.4802" r="4.42942"/>
<circle class="l1" cx="798.81" cy="82.4802" r="4.42942"/>
<circle class="l1" cx="918.524" cy="681.051" r="4.42942"/>
<circle class="l1" cx="1002.32" cy="657.108" r="4.42942"/>
<circle class="l1" cx="750.924" cy="657.108" r="4.42942"/>
<circle class="l1" cx="1074.15" cy="597.251" r="4.42942"/>
<circle class="l1" cx="822.753" cy="597.251" r="4.42942"/>
<circle class="l1" cx="1050.21" cy="381.765" r="4.42942"/>
<circle class="l1" cx="1193.87" cy="381.765" r="4.42942"/>
<circle class="l1" cx="798.81" cy="381.765" r="4.42942"/>
<circle class="l1" cx="966.41" cy="381.765" r="4.42942"/>
<circle class="l1" cx="1074.15" cy="597.251" r="4.42942"/>
<circle class="l1" cx="1074.15" cy="681.051" r="4.42942"/>
<circle class="l1" cx="1074.15" cy="597.251" r="4.42942"/>
<circle class="l1" cx="822.753" cy="597.251" r="4.42942"/>
<circle class="l1" cx="822.753" cy="681.051" r="4.42942"/>
<circle class="l1" cx="822.753" cy="597.251" r="4.42942"/>
<circle class="l1" cx="798.81" cy="681.051" r="4.42942"/>
<circle class="l1" cx="1277.67" cy="681.051" r="4.42942"/>
<circle class="l1" cx="1050.21" cy="681.051" r="4.42942"/>
<circle class="l1" cx="798.81" cy="681.051" r="4.42942"/>
<circle class="l1" cx="1397.38" cy="381.765" r="4.42942"/>
<circle class="l1" cx="1277.67" cy="250.08" r="4.42942"/>
<circle class="l1" cx="1277.67" cy="82.4802" r="4.42942"/>
<circle class="l1" cx="1277.67" cy="82.4802" r="4.42942"/>
<circle class="l1" cx="1301.61" cy="597.251" r="4.42942"/>
<circle class="l1" cx="1277.67" cy="381.765" r="4.42942"/>
<circle class="l1" cx="1277.67" cy="681.051" r="4.42942"/>
<circle class="l1" cx="1301.61" cy="597.251" r="4.42942"/>
<circle class="l1" cx="1301.61" cy="597.251" r="4.42942"/>
<circle class="l1" cx="1277.67" cy="681.051" r="4.42942"/>
</svg>
